<?xml version="1.0" encoding="utf-8"?>
<!-- Generator: Adobe Illustrator 24.0.2, SVG Export Plug-In . SVG Version: 6.00 Build 0)  -->
<svg version="1.1" id="Camada_1" xmlns="http://www.w3.org/2000/svg" xmlns:xlink="http://www.w3.org/1999/xlink" x="0px" y="0px"
	 viewBox="0 0 283.5 95.2" style="enable-background:new 0 0 283.5 95.2;" xml:space="preserve">
<style type="text/css">
	.st0{fill:#0A0A0A;}
	.st1{fill:url(#SVGID_1_);}
	.st2{fill:url(#SVGID_2_);}
	.st3{fill:url(#SVGID_3_);}
</style>
<path class="st0" d="M54.7,76.5c-0.6-0.1-1.8-0.1-3.8-0.1c-2.7,0-4.6,1-5.7,3c-0.7-1.3-1.7-2.2-3.1-2.6c-0.8-0.3-2.2-0.4-4.1-0.4
	c-4.9,0-7.3,2.5-7.3,7.6v8h2.4v-8c0-2,0.5-3.4,1.4-4.2c0.9-0.7,2.3-1.1,4.4-1.1c2,0,3.4,0.6,4.1,1.7c0.6,0.9,0.9,2.4,0.9,4.6v7h2.5
	v-6.8c0-2.3,0.4-4,1.1-4.9c0.8-1.1,2.4-1.6,4.6-1.6c3.5,0,5.2,1.7,5.2,5.2v8h2.4v-8C59.8,79.5,58.1,77.1,54.7,76.5z"/>
<rect x="64" y="76.3" class="st0" width="2.6" height="15.6"/>
<path class="st0" d="M85.9,83.5c-1-0.5-2.6-0.8-4.6-0.8c-0.5,0-1.1,0-2.1,0.1c-0.9,0.1-1.6,0.1-2.1,0.1c-2.9,0-4.4-0.7-4.4-2.1
	c0-1.3,0.8-2,2.4-2h7c2,0,2.9,0.7,2.9,2h2.8c0-2.9-1.8-4.4-5.5-4.4h-7.4c-1.7,0-2.9,0.3-3.7,0.9c-0.9,0.7-1.4,1.8-1.4,3.4
	c0,1.8,0.7,3,2.1,3.7c1,0.5,2.5,0.7,4.4,0.7c0.5,0,1.3,0,2.2-0.1s1.7-0.1,2.2-0.1c1.2,0,2.2,0.1,2.8,0.3c1.1,0.4,1.6,1,1.6,2
	c0,0.9-0.3,1.5-0.9,1.8c-0.5,0.3-1.2,0.4-2.1,0.4h-6.7c-1.9,0-2.9-0.7-2.9-2h-2.7c0,2.9,1.7,4.4,5.1,4.4h7.8c1.7,0,3-0.3,3.8-0.9
	c0.9-0.7,1.3-1.9,1.3-3.6C88,85.5,87.3,84.2,85.9,83.5z"/>
<path class="st0" d="M90.1,78.7H97v7.4c0,2.1,0.4,3.6,1.3,4.5s2.3,1.3,4.4,1.3h0.2v-2.3c-1-0.1-1.8-0.3-2.2-0.7
	c-0.6-0.5-0.9-1.3-0.9-2.5v-7.6h7.9v-2.4H90.1V78.7z"/>
<path class="st0" d="M125.2,77.3c-1.2-0.7-3.1-1-5.6-1h-3.4c-2.3,0-3.9,0.2-5,0.6s-1.8,1.3-2.2,2.4c-0.3,1-0.5,2.7-0.5,5
	c0,2.2,0.2,3.8,0.6,4.8c0.4,1.1,1.2,1.8,2.2,2.2c1,0.4,2.6,0.6,4.8,0.6h3.4c2.9,0,4.8-0.2,5.8-0.7c1.3-0.6,1.9-1.9,1.9-3.9h-2.5
	c0,1.1-0.5,1.7-1.4,2c-0.6,0.2-1.8,0.3-3.8,0.3h-3.3c-2.1,0-3.5-0.2-4.1-0.6c-0.8-0.5-1.1-1.9-1.1-3.9h16.2v-2.2c0-0.1,0-0.1,0-0.1
	c0-1.4-0.1-2.3-0.1-2.6C127,78.9,126.3,77.9,125.2,77.3z M111,82.7c0-1.8,0.4-3,1.2-3.5c0.6-0.4,2-0.6,4.1-0.6h3.2
	c1.8,0,2.9,0.1,3.6,0.2c0.9,0.2,1.5,0.7,1.6,1.5c0,0.1,0.1,0.9,0.1,2.4H111z"/>
<path class="st0" d="M144.6,77.5c-1.1-0.7-2.5-1.1-4.2-1.1h-3.2c-1.9,0-3.2,0.7-4.2,2v-2h-2.6V92h2.6v-9.4c0-1.2,0.4-2.1,1.2-2.8
	c0.8-0.7,1.8-1.1,3-1.1h3.2c2.1,0,3.2,0.8,3.4,2.4h2.6C146.4,79.5,145.8,78.3,144.6,77.5z"/>
<path class="st0" d="M187.1,84.4c0,2-0.5,3.4-1.4,4.2c-0.9,0.7-2.3,1.1-4.4,1.1c-2,0-3.4-0.6-4.1-1.7c-0.6-0.9-0.9-2.4-0.9-4.6v-7
	h-2.5v6.8c0,2.3-0.4,4-1.1,4.9c-0.8,1.1-2.4,1.6-4.6,1.6c-3.5,0-5.2-1.7-5.2-5.2v-8h-2.4v8c0,4.4,1.7,6.9,5.1,7.4
	c0.6,0.1,1.8,0.2,3.8,0.2c2.7,0,4.6-1,5.7-3c0.7,1.3,1.7,2.2,3.1,2.6c0.8,0.3,2.2,0.4,4.1,0.4c4.9,0,7.3-2.5,7.3-7.6v-8h-2.4
	L187.1,84.4z"/>
<path class="st0" d="M204.3,76.3h-4.7c-1.6,0-3,0.3-4.1,0.8c-1.7,0.8-2.5,2.2-2.5,4.1h2.7c0-1.5,1.3-2.3,3.9-2.3h4.4
	c1.7,0,2.9,0.3,3.5,1c0.5,0.6,0.8,1.9,0.8,3.7c-0.3-0.4-0.9-0.8-1.8-1c-0.5-0.1-1-0.2-1.5-0.2h-5.5c-2.1,0-3.7,0.3-4.6,0.8
	c-1.3,0.7-1.9,2-2,3.9c0,2.1,0.6,3.4,1.9,4.2c0.9,0.5,2.5,0.8,4.7,0.8h4.6c1.7,0,3.1-0.5,4.2-1.4v1.4h2.8v-9.5
	c0-0.2,0.1-0.5,0.1-0.8c0-1.3-0.4-2.5-1.1-3.4C208.9,77,207,76.3,204.3,76.3z M207.4,88.8c-0.7,0.4-1.8,0.6-3.3,0.6h-4.5
	c-1.2,0-2.1-0.1-2.6-0.3c-0.9-0.3-1.3-1-1.3-2c0-1.1,0.5-1.8,1.4-2.1c0.6-0.2,1.4-0.3,2.6-0.3h5.4c2.1,0,3.2,0.7,3.3,2.1
	C208.4,87.7,208,88.4,207.4,88.8z"/>
<polygon class="st0" points="222.9,89.5 222.6,89.7 215.9,76.3 212.8,76.3 220.7,91.9 224.7,91.9 232.6,76.3 229.5,76.3 "/>
<path class="st0" d="M250.8,77.3c-1.2-0.7-3.1-1-5.6-1h-3.4c-2.3,0-3.9,0.2-5,0.6s-1.8,1.3-2.2,2.4c-0.3,1-0.5,2.7-0.5,5
	c0,2.2,0.2,3.8,0.6,4.8c0.4,1.1,1.2,1.8,2.2,2.2c1,0.4,2.6,0.6,4.8,0.6h3.4c2.9,0,4.8-0.2,5.8-0.7c1.3-0.6,1.9-1.9,1.9-3.9h-2.5
	c0,1.1-0.5,1.7-1.4,2c-0.6,0.2-1.8,0.3-3.8,0.3h-3.3c-2.1,0-3.5-0.2-4.1-0.6c-0.8-0.5-1.1-1.9-1.1-3.9h16.2v-2.2c0-0.1,0-0.1,0-0.1
	c0-1.5-0.1-2.3-0.1-2.6C252.6,78.9,251.9,77.9,250.8,77.3z M236.6,82.7c0-1.8,0.4-3,1.2-3.5c0.6-0.4,2-0.6,4.1-0.6h3.2
	c1.8,0,2.9,0.1,3.6,0.2c0.9,0.2,1.5,0.7,1.6,1.5c0,0.1,0.1,0.9,0.1,2.4H236.6z"/>
<linearGradient id="SVGID_1_" gradientUnits="userSpaceOnUse" x1="48.2077" y1="32.2994" x2="175.9138" y2="41.1067">
	<stop  offset="0" style="stop-color:#0019FC"/>
	<stop  offset="0.1077" style="stop-color:#0419F7"/>
	<stop  offset="0.2322" style="stop-color:#1118E9"/>
	<stop  offset="0.3651" style="stop-color:#2717D2"/>
	<stop  offset="0.504" style="stop-color:#4515B1"/>
	<stop  offset="0.6474" style="stop-color:#6C1388"/>
	<stop  offset="0.7947" style="stop-color:#9B1154"/>
	<stop  offset="0.9425" style="stop-color:#D20E19"/>
	<stop  offset="1" style="stop-color:#E90D00"/>
</linearGradient>
<path class="st1" d="M110.4,21.5c1.2,0,2.1,0.7,2.4,1.7c0.1,0.3,0.1,0.5,0.2,0.7c1,2.9,1.6,5.2,3.3,12.7c2.2,9.6,3.4,13.8,4.8,17.3
	c2.6,5.9,5.9,9.3,10.5,10.5c1.3,0.4,3.4,0.4,4.3,0.1c3.2-0.8,5.3-3.9,4.8-7c-0.2-1.3-0.8-2.5-1.8-3.5c-0.9-0.9-1.9-1.4-3.1-1.7
	c-0.3-0.2-0.9-0.3-1-0.3c-0.4-0.3-1-1.2-1.7-2.9c-1.4-3.1-2.1-5.5-4.4-15.5c-2.5-10.3-3.3-13.4-4.7-17.3c-0.9-2.4-2.6-6-3.6-7.3
	c-1.5-2.1-3.3-3.8-5.1-4.6c-2.8-1.3-6.5-1.1-9.6,0.3c-4,2.1-6.9,6.2-9.2,13.4c-1.1,3.1-1.7,5.6-3.4,13c-2.6,11.3-5.7,19.6-5.7,19.6
	s-0.2,0.7-1.3,0.7s-1.3-0.7-1.3-0.7s-3.1-8.3-5.7-19.6c-1.7-7.4-2.3-9.9-3.4-13c-2.3-7.2-5.2-11.3-9.2-13.4
	c-3.1-1.4-6.8-1.6-9.6-0.3c-1.8,0.8-3.6,2.5-5.1,4.6c-1,1.3-2.7,4.9-3.6,7.3c-1.4,3.9-2.2,7-4.7,17.3c-2.3,10-3,12.4-4.4,15.5
	c-0.7,1.7-1.3,2.6-1.7,2.9c-0.1,0-0.7,0.1-1,0.3c-1.2,0.3-2.2,0.8-3.1,1.7c-1,1-1.6,2.2-1.8,3.5c-0.5,3.1,1.6,6.2,4.8,7
	c0.9,0.3,3,0.3,4.3-0.1c4.6-1.2,7.9-4.6,10.5-10.5c1.4-3.5,2.6-7.7,4.8-17.3c1.7-7.5,2.3-9.8,3.3-12.7c0.1-0.2,0.1-0.4,0.2-0.7
	c0.3-1,1.2-1.7,2.4-1.7c1.1,0,2,0.7,2.3,1.6c0.3,0.8,0.6,1.7,0.8,2.6c0.5,2.1,2.1,8.7,2.6,11.2c0.5,2.6,2.3,9.5,3,11.6
	c1.3,4.2,2.9,7.9,4.4,10.1c3,4.7,6,6.2,11.2,6.1c5.2,0.1,8.2-1.4,11.2-6.1c1.5-2.2,3.1-5.9,4.4-10.1c0.7-2.1,2.5-9,3-11.6
	c0.5-2.5,2.1-9.1,2.6-11.2c0.2-0.9,0.5-1.8,0.8-2.6C108.4,22.2,109.3,21.5,110.4,21.5z"/>
<linearGradient id="SVGID_2_" gradientUnits="userSpaceOnUse" x1="48.8525" y1="22.9496" x2="176.5587" y2="31.757">
	<stop  offset="0" style="stop-color:#0019FC"/>
	<stop  offset="0.1077" style="stop-color:#0419F7"/>
	<stop  offset="0.2322" style="stop-color:#1118E9"/>
	<stop  offset="0.3651" style="stop-color:#2717D2"/>
	<stop  offset="0.504" style="stop-color:#4515B1"/>
	<stop  offset="0.6474" style="stop-color:#6C1388"/>
	<stop  offset="0.7947" style="stop-color:#9B1154"/>
	<stop  offset="0.9425" style="stop-color:#D20E19"/>
	<stop  offset="1" style="stop-color:#E90D00"/>
</linearGradient>
<path class="st2" d="M250,3.8c-0.9-0.3-3-0.3-4.3,0.1c-4.6,1.2-7.9,4.6-10.5,10.5c-1.4,3.5-2.6,7.7-4.8,17.3
	c-1.7,7.5-2.3,9.8-3.3,12.7c-0.1,0.2-0.1,0.4-0.2,0.7c-0.3,1-1.2,1.7-2.4,1.7c-1.1,0-2-0.7-2.3-1.6c-0.3-0.8-0.6-1.7-0.8-2.6
	c-0.5-2.1-2.1-8.7-2.6-11.2c-0.5-2.6-2.3-9.5-3-11.6c-1.3-4.2-2.9-7.9-4.4-10.1c-3-4.7-6-6.2-11.2-6.1C195.1,3.5,192,5,189,9.7
	c-1.5,2.2-3.1,5.9-4.4,10.1c-0.7,2.1-2.5,9-3,11.6c-0.5,2.5-2.1,9.1-2.6,11.2c-0.2,0.9-0.5,1.8-0.8,2.6c-0.3,0.9-1.2,1.6-2.3,1.6
	c-1.2,0-2.1-0.7-2.4-1.7c-0.1-0.3-0.1-0.5-0.2-0.7c-1-2.9-1.6-5.2-3.3-12.7c-2.2-9.6-3.4-13.8-4.8-17.3c-2.6-5.9-5.9-9.3-10.5-10.5
	c-1.3-0.4-3.4-0.4-4.3-0.1c-3.2,0.8-5.3,3.9-4.8,7c0.2,1.3,0.8,2.5,1.8,3.5c0.9,0.9,1.9,1.4,3.1,1.7c0.3,0.2,0.9,0.3,1,0.3
	c0.4,0.3,1,1.2,1.7,2.9c1.4,3.1,2.1,5.5,4.4,15.5c2.5,10.3,3.3,13.4,4.7,17.3c0.9,2.4,2.6,6,3.6,7.3c1.5,2.1,3.3,3.8,5.1,4.6
	c2.8,1.3,6.5,1.1,9.6-0.3c4-2.1,6.9-6.2,9.2-13.4c1.1-3.1,1.7-5.6,3.4-13c2.6-11.3,5.7-19.6,5.7-19.6s0.2-0.7,1.3-0.7
	s1.3,0.7,1.3,0.7s3.1,8.3,5.7,19.6c1.7,7.4,2.3,9.9,3.4,13c2.3,7.2,5.2,11.3,9.2,13.4c3.1,1.4,6.8,1.6,9.6,0.3
	c1.8-0.8,3.6-2.5,5.1-4.6c1-1.3,2.7-4.9,3.6-7.3c1.4-3.9,2.2-7,4.7-17.3c2.3-10,3-12.4,4.4-15.5c0.7-1.7,1.3-2.6,1.7-2.9
	c0.1,0,0.7-0.1,1-0.3c1.2-0.3,2.2-0.8,3.1-1.7c1-1,1.6-2.2,1.8-3.5C255.3,7.7,253.2,4.6,250,3.8z"/>
<linearGradient id="SVGID_3_" gradientUnits="userSpaceOnUse" x1="48.5413" y1="27.4615" x2="176.2475" y2="36.2688">
	<stop  offset="0" style="stop-color:#0019FC"/>
	<stop  offset="0.1077" style="stop-color:#0419F7"/>
	<stop  offset="0.2322" style="stop-color:#1118E9"/>
	<stop  offset="0.3651" style="stop-color:#2717D2"/>
	<stop  offset="0.504" style="stop-color:#4515B1"/>
	<stop  offset="0.6474" style="stop-color:#6C1388"/>
	<stop  offset="0.7947" style="stop-color:#9B1154"/>
	<stop  offset="0.9425" style="stop-color:#D20E19"/>
	<stop  offset="1" style="stop-color:#E90D00"/>
</linearGradient>
<circle class="st3" cx="141.9" cy="33.9" r="8.5"/>
</svg>
